# Blender v2.81 (sub 16) OBJ File: 'TrashCan.blend'
# www.blender.org
mtllib TrashCan.mtl
o Cube
v 0.831284 2.485635 0.919501
v 0.700191 2.485635 1.085765
v -0.700191 2.485635 1.085765
v -0.831284 2.485635 0.919501
v 0.700191 2.485635 -1.085765
v 0.831284 2.485635 -0.919501
v -0.831284 2.485635 -0.919501
v -0.700191 2.485635 -1.085765
v 0.445741 0.167017 0.753420
v 0.576834 0.167017 0.587155
v -0.576834 0.167017 0.587155
v -0.445741 0.167017 0.753420
v 0.576834 0.167017 -0.587155
v 0.445741 0.167017 -0.753420
v -0.445741 0.167017 -0.753420
v -0.576834 0.167017 -0.587155
v 0.686826 0.150448 -1.007663
v 0.794969 0.150448 -0.870587
v 0.681608 0.000000 -1.000000
v 0.788923 0.000000 -0.863973
v 0.794969 0.150448 0.870587
v 0.686826 0.150448 1.007663
v 0.788923 0.000000 0.863973
v 0.681608 0.000000 1.000000
v -0.794969 0.150448 -0.870587
v -0.686826 0.150448 -1.007663
v -0.788923 0.000000 -0.863973
v -0.681608 0.000000 -1.000000
v -0.686826 0.150448 1.007663
v -0.794969 0.150448 0.870587
v -0.681608 0.000000 1.000000
v -0.788923 0.000000 0.863973
v 0.811139 2.485635 1.164199
v 0.918464 2.485635 1.028159
v -0.918464 2.485635 1.028159
v -0.811139 2.485635 1.164199
v 0.918464 2.485635 -1.028159
v 0.811139 2.485635 -1.164199
v -0.811139 2.485635 -1.164199
v -0.918464 2.485635 -1.028159
v -0.748982 1.318041 1.085931
v -0.856716 1.318041 0.949373
v -0.748982 1.318041 -1.085931
v -0.856716 1.318041 -0.949373
v 0.748982 1.318041 -1.085931
v 0.856716 1.318041 -0.949373
v 0.748982 1.318041 1.085931
v 0.856716 1.318041 0.949373
v -0.572966 1.326326 0.919593
v -0.704059 1.326326 0.753328
v -0.572966 1.326326 -0.919593
v -0.704059 1.326326 -0.753328
v 0.704059 1.326326 0.753328
v 0.572966 1.326326 0.919593
v 0.704059 1.326326 -0.753328
v 0.572966 1.326326 -0.919593
v -0.767672 1.905980 0.836414
v -0.636579 1.905980 -1.002679
v 0.636579 1.905980 1.002679
v 0.767672 1.905980 -0.836414
v -0.636579 1.905980 1.002679
v -0.767672 1.905980 -0.836414
v 0.767672 1.905980 0.836414
v 0.636579 1.905980 -1.002679
v -0.509353 0.746671 0.836506
v -0.640447 0.746671 -0.670242
v 0.640447 0.746671 0.670242
v 0.509353 0.746671 -0.836506
v -0.640447 0.746671 0.670242
v -0.509353 0.746671 -0.836506
v 0.509353 0.746671 0.836506
v 0.640447 0.746671 -0.670242
v -0.780061 1.901838 1.125065
v -0.887590 1.901838 -0.988766
v 0.780061 1.901838 -1.125065
v 0.887590 1.901838 0.988766
v -0.887590 1.901838 0.988766
v -0.780061 1.901838 -1.125065
v 0.887590 1.901838 -0.988766
v 0.780061 1.901838 1.125065
v -0.825842 0.734245 0.909980
v -0.717904 0.734245 -1.046797
v 0.825842 0.734245 -0.909980
v 0.717904 0.734245 1.046797
v -0.717904 0.734245 1.046797
v -0.825842 0.734245 -0.909980
v 0.717904 0.734245 -1.046797
v 0.825842 0.734245 0.909980
v 0.831284 2.485635 0.000000
v 0.576834 0.167017 0.000000
v 0.788923 0.000000 0.000000
v 0.794969 0.150448 0.000000
v 0.918464 2.485635 0.000000
v 0.856716 1.318041 0.000000
v 0.704059 1.326326 0.000000
v 0.767672 1.905980 0.000000
v 0.640447 0.746671 -0.000000
v 0.887590 1.901838 0.000000
v 0.825842 0.734245 0.000000
v -0.831284 2.485635 0.000000
v -0.576834 0.167017 0.000000
v -0.788923 0.000000 0.000000
v -0.794969 0.150448 0.000000
v -0.918464 2.485635 0.000000
v -0.856716 1.318041 0.000000
v -0.704059 1.326326 0.000000
v -0.767672 1.905980 0.000000
v -0.640447 0.746671 0.000000
v -0.887590 1.901838 0.000000
v -0.825842 0.734245 0.000000
v 0.000000 2.485635 1.085765
v 0.000000 0.167017 0.753420
v 0.000000 0.000000 1.000000
v 0.000000 0.150448 1.007663
v 0.000000 2.485635 1.164199
v 0.000000 1.318041 1.085931
v 0.000000 1.326326 0.919593
v 0.000000 1.905980 1.002679
v 0.000000 0.746671 0.836506
v 0.000000 1.901838 1.125065
v 0.000000 0.734245 1.046797
v 0.000000 2.485635 -1.085765
v 0.000000 0.167017 -0.753420
v 0.000000 0.000000 -1.000000
v 0.000000 0.150448 -1.007663
v 0.000000 2.485635 -1.164199
v 0.000000 1.318041 -1.085931
v 0.000000 1.326326 -0.919593
v 0.000000 1.905980 -1.002679
v 0.000000 0.746671 -0.836506
v 0.000000 1.901838 -1.125065
v 0.000000 0.734245 -1.046797
v 0.000000 0.167017 -0.000000
v 0.000000 0.000000 0.000000
vt 0.430150 0.647748
vt 0.396525 0.732033
vt 0.373335 0.715603
vt 0.430150 0.647748
vt 0.037688 0.901890
vt 0.128129 0.996610
vt 0.128129 0.997187
vt 0.000198 0.899958
vt 0.670469 0.647748
vt 0.430150 0.647748
vt 0.430150 0.543935
vt 0.670469 0.543934
vt 0.128129 0.650750
vt 0.097596 0.742378
vt 0.080976 0.736383
vt 0.128129 0.650750
vt 0.961042 0.269550
vt 0.932383 0.269695
vt 0.930963 0.103774
vt 0.959703 0.104857
vt 0.268521 0.303234
vt 0.235895 0.293895
vt 0.252201 0.275510
vt 0.269412 0.277741
vt 0.894574 0.738483
vt 0.774679 0.634404
vt 0.894838 0.634404
vt 0.606264 0.271642
vt 0.599436 0.452754
vt 0.489679 0.452272
vt 0.505164 0.271082
vt 0.368448 0.891068
vt 0.170644 0.915804
vt 0.171417 0.787255
vt 0.368448 0.787254
vt 0.432536 0.834724
vt 0.456741 0.781268
vt 0.481863 0.783104
vt 0.460027 0.842044
vt 0.064694 0.021251
vt 0.094822 0.000647
vt 0.122830 0.017281
vt 0.081101 0.048958
vt 0.221872 0.249519
vt 0.233338 0.216234
vt 0.250625 0.233929
vt 0.247456 0.251721
vt 0.291165 0.271822
vt 0.270845 0.253735
vt 0.292850 0.255778
vt 0.493182 0.075278
vt 0.505446 0.103664
vt 0.486047 0.117641
vt 0.463819 0.079751
vt 0.051163 0.473486
vt 0.025141 0.447452
vt 0.046521 0.423064
vt 0.082072 0.462165
vt 0.263434 0.513849
vt 0.263541 0.499068
vt 0.466379 0.475973
vt 0.438048 0.465194
vt 0.470860 0.430997
vt 0.243288 0.208335
vt 0.256246 0.229095
vt 0.159729 0.377390
vt 0.137467 0.353110
vt 0.454808 0.971841
vt 0.481863 0.952612
vt 0.506579 0.976612
vt 0.486909 0.999802
vt 0.395367 0.363301
vt 0.371921 0.384598
vt 0.276856 0.204598
vt 0.308307 0.216281
vt 0.290910 0.233329
vt 0.273764 0.229782
vt 0.488175 0.270288
vt 0.307960 0.000198
vt 0.305325 0.014418
vt 0.000198 0.229665
vt 0.021738 0.231658
vt 0.128129 0.514245
vt 0.368448 0.514246
vt 0.368448 0.546935
vt 0.128129 0.546936
vt 0.430150 0.527589
vt 0.670469 0.527589
vt 0.932675 0.066828
vt 0.961331 0.068265
vt 0.128129 0.754563
vt 0.368448 0.754564
vt 0.384864 0.549058
vt 0.368844 0.544318
vt 0.424629 0.514245
vt 0.430150 0.527589
vt 0.128129 0.755139
vt 0.128129 0.786678
vt 0.089784 0.557478
vt 0.072605 0.561503
vt 0.064322 0.522378
vt 0.081194 0.519041
vt 0.820909 0.061527
vt 0.819363 0.098349
vt 0.368448 0.650750
vt 0.128129 0.650750
vt 0.368448 0.547516
vt 0.596541 0.058517
vt 0.709061 0.057631
vt 0.708517 0.094356
vt 0.599321 0.095204
vt 0.128129 0.546360
vt 0.106963 0.554373
vt 0.097760 0.517238
vt 0.116779 0.515435
vt 0.115375 0.748372
vt 0.128129 0.786102
vt 0.084509 0.787686
vt 0.414304 0.547610
vt 0.397684 0.552831
vt 0.430150 0.527589
vt 0.430150 0.527589
vt 0.821840 0.270406
vt 0.821360 0.442484
vt 0.710188 0.448769
vt 0.712637 0.271132
vt 0.128129 0.650750
vt 0.128129 0.650750
vt 0.126583 0.914258
vt 0.128129 0.995458
vt 0.128129 0.996034
vt 0.089479 0.911166
vt 0.430150 0.647748
vt 0.430150 0.752138
vt 0.410052 0.742279
vt 0.430150 0.647748
vt 0.290827 0.103196
vt 0.388122 0.143498
vt 0.338224 0.187831
vt 0.281950 0.164909
vt 0.311238 0.287230
vt 0.345592 0.315877
vt 0.329879 0.330467
vt 0.302018 0.296430
vt 0.407001 0.167736
vt 0.350103 0.203506
vt 0.206903 0.325775
vt 0.192893 0.310317
vt 0.227393 0.284374
vt 0.183278 0.113826
vt 0.220305 0.172344
vt 0.203962 0.185020
vt 0.157272 0.133551
vt 0.117030 0.240312
vt 0.181177 0.245993
vt 0.409077 0.827916
vt 0.418864 0.780687
vt 0.437029 0.780590
vt 0.424562 0.831365
vt 0.265467 0.407670
vt 0.267349 0.344161
vt 0.368844 0.818633
vt 0.377508 0.778077
vt 0.247493 0.269793
vt 0.462173 0.752534
vt 0.506579 0.759104
vt 0.316108 0.226146
vt 0.047924 0.787699
vt 0.430150 0.751562
vt 0.171417 0.994882
vt 0.932687 0.435154
vt 0.438962 0.976770
vt 0.377122 0.960345
vt 0.420410 0.984790
vt 0.961331 0.433849
vt 0.368448 0.994883
vt 0.670469 0.751563
vt 0.286287 0.277045
vt 0.295220 0.239356
vt 0.894838 0.531266
vt 0.774679 0.754563
vt 0.671445 0.754563
vt 0.774679 0.514245
vt 0.670865 0.514245
vt 0.693712 0.924890
vt 0.682154 0.766517
vt 0.767119 0.851482
vt 0.878493 0.754563
vt 0.670865 0.924890
vt 0.878493 0.514245
vt 0.840527 0.754959
vt 0.840527 0.778074
vn 0.0000 -0.0669 0.9978
vn -0.9986 -0.0528 0.0000
vn 0.0000 -0.0509 0.9987
vn 0.0000 -0.0669 -0.9978
vn 0.9992 -0.0401 0.0000
vn 0.0000 0.1419 0.9899
vn 0.0000 -1.0000 0.0000
vn 0.9986 -0.0528 0.0000
vn -0.9992 -0.0401 0.0000
vn -0.9940 0.1091 0.0000
vn 0.0000 1.0000 0.0000
vn 0.9940 0.1091 0.0000
vn 0.7735 0.1723 -0.6099
vn 0.7735 0.1723 0.6099
vn -0.7735 0.1723 -0.6099
vn -0.7735 0.1723 0.6099
vn 0.0000 0.1419 -0.9899
vn 0.7837 -0.0587 -0.6183
vn -0.7837 -0.0587 0.6183
vn 0.7837 -0.0587 0.6183
vn -0.7837 -0.0587 -0.6183
vn -0.7824 -0.0830 0.6172
vn -0.7824 -0.0830 -0.6172
vn 0.7824 -0.0830 -0.6172
vn 0.7824 -0.0830 0.6172
vn 0.0000 -0.0509 -0.9987
usemtl Material
s off
f 120/1/1 80/2/1 33/3/1 115/4/1
f 109/5/2 77/6/2 35/7/2 104/8/2
f 113/9/3 114/10/3 29/11/3 31/12/3
f 131/13/4 78/14/4 39/15/4 126/16/4
f 91/17/5 92/18/5 21/19/5 23/20/5
f 130/21/6 70/22/6 15/23/6 123/24/6
f 27/25/7 134/26/7 102/27/7
f 98/28/8 79/29/8 37/30/8 93/31/8
f 102/32/9 103/33/9 25/34/9 27/35/9
f 97/36/10 72/37/10 13/38/10 90/39/10
f 35/40/11 36/41/11 3/42/11 4/43/11
f 108/44/12 69/45/12 11/46/12 101/47/12
f 13/48/11 133/49/11 90/50/11
f 33/51/11 34/52/11 1/53/11 2/54/11
f 39/55/11 40/56/11 7/57/11 8/58/11
f 126/59/11 39/55/11 8/58/11 122/60/11
f 37/30/11 38/61/11 5/62/11 6/63/11
f 65/64/13 12/65/13 11/46/13 69/45/13
f 58/66/14 8/58/14 7/57/14 62/67/14
f 67/68/15 10/69/15 9/70/15 71/71/15
f 60/72/16 6/63/16 5/62/16 64/73/16
f 119/74/17 71/75/17 9/76/17 112/77/17
f 93/31/11 37/30/11 6/63/11 89/78/11
f 115/79/11 33/51/11 2/54/11 111/80/11
f 104/81/11 35/40/11 4/43/11 100/82/11
f 18/83/18 20/84/18 19/85/18 17/86/18
f 31/12/19 29/11/19 30/87/19 32/88/19
f 22/89/20 24/90/20 23/20/20 21/19/20
f 26/91/21 28/92/21 27/35/21 25/34/21
f 73/93/22 36/94/22 35/95/22 77/96/22
f 82/97/23 26/91/23 25/34/23 86/98/23
f 75/99/24 38/100/24 37/101/24 79/102/24
f 84/103/25 22/89/25 21/19/25 88/104/25
f 124/105/26 125/106/26 17/86/26 19/107/26
f 80/108/25 47/109/25 48/110/25 76/111/25
f 87/112/24 45/113/24 46/114/24 83/115/24
f 78/14/23 43/116/23 44/117/23 74/118/23
f 85/119/22 41/120/22 42/121/22 81/122/22
f 99/123/8 83/124/8 46/125/8 94/126/8
f 132/127/4 82/97/4 43/116/4 127/128/4
f 110/129/2 81/130/2 42/131/2 105/132/2
f 121/133/1 84/134/1 47/135/1 116/136/1
f 118/137/17 59/138/17 54/139/17 117/140/17
f 72/141/16 55/142/16 56/143/16 68/144/16
f 63/145/15 53/146/15 54/139/15 59/138/15
f 70/22/14 51/147/14 52/148/14 66/149/14
f 61/150/13 49/151/13 50/152/13 57/153/13
f 107/154/12 57/153/12 50/152/12 106/155/12
f 96/156/10 60/157/10 55/158/10 95/159/10
f 129/160/6 58/66/6 51/147/6 128/161/6
f 122/60/6 8/58/6 58/66/6 129/160/6
f 89/162/10 6/163/10 60/157/10 96/156/10
f 100/82/12 4/43/12 57/153/12 107/154/12
f 3/42/13 61/150/13 57/153/13 4/43/13
f 1/53/15 63/145/15 59/138/15 2/54/15
f 111/80/17 2/54/17 59/138/17 118/137/17
f 55/142/16 60/72/16 64/73/16 56/143/16
f 51/147/14 58/66/14 62/67/14 52/148/14
f 15/23/14 70/22/14 66/149/14 16/164/14
f 13/38/16 72/37/16 68/165/16 14/166/16
f 117/140/17 54/139/17 71/75/17 119/74/17
f 53/146/15 67/167/15 71/75/15 54/139/15
f 49/151/13 65/64/13 69/45/13 50/152/13
f 106/155/12 50/152/12 69/45/12 108/44/12
f 95/159/10 55/158/10 72/37/10 97/36/10
f 128/161/6 51/147/6 70/22/6 130/21/6
f 39/15/23 78/14/23 74/118/23 40/168/23
f 33/51/25 80/108/25 76/111/25 34/52/25
f 45/113/24 75/99/24 79/102/24 46/114/24
f 41/120/22 73/93/22 77/96/22 42/121/22
f 94/126/8 46/125/8 79/29/8 98/28/8
f 127/128/4 43/116/4 78/14/4 131/13/4
f 105/132/2 42/131/2 77/6/2 109/5/2
f 116/136/1 47/135/1 80/2/1 120/1/1
f 114/10/1 22/169/1 84/134/1 121/133/1
f 103/33/2 30/170/2 81/130/2 110/129/2
f 125/106/4 26/91/4 82/97/4 132/127/4
f 92/18/8 18/171/8 83/124/8 99/123/8
f 29/11/22 85/119/22 81/122/22 30/87/22
f 17/86/24 87/112/24 83/115/24 18/83/24
f 47/109/25 84/103/25 88/104/25 48/110/25
f 43/116/23 82/97/23 86/98/23 44/117/23
f 21/19/8 92/18/8 99/123/8 88/104/8
f 48/110/8 94/126/8 98/28/8 76/111/8
f 53/172/10 95/159/10 97/36/10 67/68/10
f 1/173/10 89/162/10 96/156/10 63/174/10
f 63/174/10 96/156/10 95/159/10 53/172/10
f 88/104/8 99/123/8 94/126/8 48/110/8
f 34/52/11 93/31/11 89/78/11 1/53/11
f 67/68/10 97/36/10 90/39/10 10/69/10
f 76/111/8 98/28/8 93/31/8 34/52/8
f 20/175/5 18/171/5 92/18/5 91/17/5
f 25/34/2 103/33/2 110/129/2 86/98/2
f 44/117/2 105/132/2 109/5/2 74/118/2
f 52/148/12 106/155/12 108/44/12 66/149/12
f 7/57/12 100/82/12 107/154/12 62/67/12
f 62/67/12 107/154/12 106/155/12 52/148/12
f 86/98/2 110/129/2 105/132/2 44/117/2
f 40/56/11 104/81/11 100/82/11 7/57/11
f 66/149/12 108/44/12 101/47/12 16/164/12
f 32/176/9 30/170/9 103/33/9 102/32/9
f 74/118/2 109/5/2 104/8/2 40/168/2
f 29/11/1 114/10/1 121/133/1 85/119/1
f 41/120/1 116/136/1 120/1/1 73/93/1
f 49/151/17 117/140/17 119/74/17 65/64/17
f 3/42/17 111/80/17 118/137/17 61/150/17
f 61/150/17 118/137/17 117/140/17 49/151/17
f 85/119/1 121/133/1 116/136/1 41/120/1
f 36/41/11 115/79/11 111/80/11 3/42/11
f 65/64/17 119/74/17 112/77/17 12/65/17
f 24/177/3 22/169/3 114/10/3 113/9/3
f 73/93/1 120/1/1 115/4/1 36/94/1
f 17/86/4 125/106/4 132/127/4 87/112/4
f 45/113/4 127/128/4 131/13/4 75/99/4
f 56/143/6 128/161/6 130/21/6 68/144/6
f 5/62/6 122/60/6 129/160/6 64/73/6
f 64/73/6 129/160/6 128/161/6 56/143/6
f 87/112/4 132/127/4 127/128/4 45/113/4
f 28/92/26 26/91/26 125/106/26 124/105/26
f 38/61/11 126/59/11 122/60/11 5/62/11
f 68/144/6 130/21/6 123/24/6 14/178/6
f 75/99/4 131/13/4 126/16/4 38/100/4
f 112/77/11 133/49/11 12/65/11
f 90/50/11 133/49/11 10/179/11
f 101/47/11 133/49/11 16/164/11
f 133/49/11 14/178/11 123/24/11
f 12/65/11 133/49/11 11/46/11
f 133/49/11 13/48/11 14/178/11
f 11/46/11 133/49/11 101/47/11
f 9/76/11 133/49/11 112/77/11
f 15/23/11 133/49/11 123/24/11
f 10/179/11 133/49/11 9/76/11
f 16/164/11 133/49/11 15/23/11
f 102/27/7 134/26/7 32/180/7
f 134/26/7 124/181/7 19/182/7
f 113/183/7 134/26/7 24/184/7
f 23/185/7 134/186/7 91/187/7
f 134/26/7 27/25/7 28/188/7
f 28/188/7 124/181/7 134/26/7
f 24/189/7 134/186/7 23/185/7
f 31/190/7 134/26/7 113/183/7
f 19/191/7 20/192/7 134/186/7
f 134/186/7 20/192/7 91/187/7
f 32/180/7 134/26/7 31/190/7
